ffmpeg version 6.1.1-3ubuntu5 Copyright (c) 2000-2023 the FFmpeg developers
  built with gcc 13 (Ubuntu 13.2.0-23ubuntu3)
  configuration: --prefix=/usr --extra-version=3ubuntu5 --toolchain=hardened --libdir=/usr/lib/x86_64-linux-gnu --incdir=/usr/include/x86_64-linux-gnu --arch=amd64 --enable-gpl --disable-stripping --disable-omx --enable-gnutls --enable-libaom --enable-libass --enable-libbs2b --enable-libcaca --enable-libcdio --enable-libcodec2 --enable-libdav1d --enable-libflite --enable-libfontconfig --enable-libfreetype --enable-libfribidi --enable-libglslang --enable-libgme --enable-libgsm --enable-libharfbuzz --enable-libmp3lame --enable-libmysofa --enable-libopenjpeg --enable-libopenmpt --enable-libopus --enable-librubberband --enable-libshine --enable-libsnappy --enable-libsoxr --enable-libspeex --enable-libtheora --enable-libtwolame --enable-libvidstab --enable-libvorbis --enable-libvpx --enable-libwebp --enable-libx265 --enable-libxml2 --enable-libxvid --enable-libzimg --enable-openal --enable-opencl --enable-opengl --disable-sndio --enable-libvpl --disable-libmfx --enable-libdc1394 --enable-libdrm --enable-libiec61883 --enable-chromaprint --enable-frei0r --enable-ladspa --enable-libbluray --enable-libjack --enable-libpulse --enable-librabbitmq --enable-librist --enable-libsrt --enable-libssh --enable-libsvtav1 --enable-libx264 --enable-libzmq --enable-libzvbi --enable-lv2 --enable-sdl2 --enable-libplacebo --enable-librav1e --enable-pocketsphinx --enable-librsvg --enable-libjxl --enable-shared
  libavutil      58. 29.100 / 58. 29.100
  libavcodec     60. 31.102 / 60. 31.102
  libavformat    60. 16.100 / 60. 16.100
  libavdevice    60.  3.100 / 60.  3.100
  libavfilter     9. 12.100 /  9. 12.100
  libswscale      7.  5.100 /  7.  5.100
  libswresample   4. 12.100 /  4. 12.100
  libpostproc    57.  3.100 / 57.  3.100
Input #0, rtsp, from 'rtsp://admin:1234Qwer@192.168.21.10:554/Streaming/Channels/101':
  Metadata:
    title           : Media Presentation
  Duration: N/A, start: 1744216069.511300, bitrate: N/A
  Stream #0:0: Video: hevc (Main), yuvj420p(pc, bt709), 1920x1080, 90k tbr, 90k tbn
Stream mapping:
  Stream #0:0 -> #0:0 (hevc (native) -> h264 (libx264))
Press [q] to stop, [?] for help
[libx264 @ 0x5e8ff0e6d0c0] MB rate (734400000) > level limit (16711680)
[libx264 @ 0x5e8ff0e6d0c0] using cpu capabilities: MMX2 SSE2Fast SSSE3 SSE4.2 AVX FMA3 BMI2 AVX2
[libx264 @ 0x5e8ff0e6d0c0] profile High, level 6.2, 4:2:0, 8-bit
[libx264 @ 0x5e8ff0e6d0c0] 264 - core 164 r3108 31e19f9 - H.264/MPEG-4 AVC codec - Copyleft 2003-2023 - http://www.videolan.org/x264.html - options: cabac=1 ref=2 deblock=1:0:0 analyse=0x3:0x113 me=hex subme=6 psy=1 psy_rd=1.00:0.00 mixed_ref=1 me_range=16 chroma_me=1 trellis=1 8x8dct=1 cqm=0 deadzone=21,11 fast_pskip=1 chroma_qp_offset=-2 threads=18 lookahead_threads=3 sliced_threads=0 nr=0 decimate=1 interlaced=0 bluray_compat=0 constrained_intra=0 bframes=3 b_pyramid=2 b_adapt=1 b_bias=0 direct=1 weightb=1 open_gop=0 weightp=1 keyint=250 keyint_min=25 scenecut=40 intra_refresh=0 rc_lookahead=30 rc=crf mbtree=1 crf=23.0 qcomp=0.60 qpmin=0 qpmax=69 qpstep=4 ip_ratio=1.40 aq=1:1.00
Output #0, matroska, to 'data/videos/stream1_1744216069.mkv':
  Metadata:
    title           : Media Presentation
    encoder         : Lavf60.16.100
  Stream #0:0: Video: h264 (H264 / 0x34363248), yuvj420p(pc, bt709, progressive), 1920x1080, q=2-31, 90k fps, 1k tbn
    Metadata:
      encoder         : Lavc60.31.102 libx264
    Side data:
      cpb: bitrate max/min/avg: 0/0/0 buffer size: 0 vbv_delay: N/A
frame=    0 fps=0.0 q=0.0 size=       0kB time=N/A bitrate=N/A speed=N/A    frame=    0 fps=0.0 q=0.0 size=       0kB time=N/A bitrate=N/A speed=N/A    frame=    0 fps=0.0 q=0.0 size=       0kB time=N/A bitrate=N/A speed=N/A    frame=    0 fps=0.0 q=0.0 size=       0kB time=N/A bitrate=N/A speed=N/A    frame=   11 fps=5.2 q=28.0 size=       1kB time=00:00:00.32 bitrate=  15.9kbits/s speed=0.153x    frame=   24 fps=9.1 q=27.0 size=       1kB time=00:00:00.86 bitrate=   5.9kbits/s speed=0.328x    frame=   37 fps= 12 q=29.0 size=       1kB time=00:00:01.36 bitrate=   3.7kbits/s speed=0.434x    frame=   50 fps= 14 q=28.0 size=       1kB time=00:00:01.90 bitrate=   2.7kbits/s speed=0.519x    frame=   63 fps= 15 q=30.0 size=       1kB time=00:00:02.42 bitrate=   2.1kbits/s speed=0.576x    frame=   76 fps= 16 q=28.0 size=       1kB time=00:00:02.94 bitrate=   1.7kbits/s speed=0.622x    frame=   89 fps= 17 q=28.0 size=       1kB time=00:00:03.46 bitrate=   1.5kbits/s speed=0.662x    frame=  102 fps= 18 q=29.0 size=       1kB time=00:00:03.96 bitrate=   1.3kbits/s speed=0.689x    frame=  115 fps= 18 q=28.0 size=       1kB time=00:00:04.49 bitrate=   1.1kbits/s speed=0.717x    frame=  128 fps= 19 q=28.0 size=    2560kB time=00:00:05.03 bitrate=4169.2kbits/s speed=0.741x    frame=  141 fps= 19 q=28.0 size=    2560kB time=00:00:05.55 bitrate=3778.6kbits/s speed=0.76x    frame=  153 fps= 20 q=29.0 size=    2560kB time=00:00:06.03 bitrate=3477.8kbits/s speed=0.773x    frame=  166 fps= 20 q=27.0 size=    2560kB time=00:00:06.55 bitrate=3201.5kbits/s speed=0.788x    frame=  179 fps= 20 q=28.0 size=    2560kB time=00:00:07.07 bitrate=2966.2kbits/s speed=0.798x    frame=  192 fps= 21 q=29.0 size=    2560kB time=00:00:07.59 bitrate=2763.0kbits/s speed=0.811x    frame=  205 fps= 21 q=31.0 size=    2560kB time=00:00:08.09 bitrate=2592.2kbits/s speed=0.819x    frame=  218 fps= 21 q=28.0 size=    2560kB time=00:00:08.65 bitrate=2424.4kbits/s speed=0.832x    frame=  231 fps= 21 q=28.0 size=    2560kB time=00:00:09.15 bitrate=2291.8kbits/s speed=0.838x    frame=  244 fps= 21 q=30.0 size=    2560kB time=00:00:09.68 bitrate=2166.3kbits/s speed=0.847x    frame=  256 fps= 21 q=27.0 size=    4864kB time=00:00:10.16 bitrate=3921.7kbits/s speed=0.851x    frame=  269 fps= 22 q=29.0 size=    4864kB time=00:00:10.68 bitrate=3730.6kbits/s speed=0.857x    frame=  282 fps= 22 q=29.0 size=    4864kB time=00:00:11.20 bitrate=3557.6kbits/s speed=0.863x    frame=  295 fps= 22 q=29.0 size=    4864kB time=00:00:11.70 bitrate=3405.2kbits/s speed=0.867x    frame=  308 fps= 22 q=28.0 size=    4864kB time=00:00:12.22 bitrate=3260.5kbits/s speed=0.871x    frame=  321 fps= 22 q=28.0 size=    4864kB time=00:00:12.77 bitrate=3120.0kbits/s speed=0.878x    frame=  334 fps= 22 q=28.0 size=    4864kB time=00:00:13.28 bitrate=3000.3kbits/s speed=0.882x    frame=  347 fps= 22 q=29.0 size=    4864kB time=00:00:13.80 bitrate=2887.1kbits/s speed=0.886x    frame=  361 fps= 22 q=28.0 size=    4864kB time=00:00:14.32 bitrate=2782.4kbits/s speed=0.889x    frame=  373 fps= 22 q=29.0 size=    4864kB time=00:00:14.85 bitrate=2683.1kbits/s speed=0.893x    frame=  386 fps= 23 q=28.0 size=    7424kB time=00:00:15.37 bitrate=3956.6kbits/s speed=0.897x    frame=  399 fps= 23 q=28.0 size=    7424kB time=00:00:15.88 bitrate=3829.8kbits/s speed=0.899x    frame=  412 fps= 23 q=28.0 size=    7424kB time=00:00:16.40 bitrate=3708.3kbits/s speed=0.902x    frame=  425 fps= 23 q=28.0 size=    7424kB time=00:00:16.93 bitrate=3591.9kbits/s speed=0.905x    frame=  437 fps= 23 q=29.0 size=    7424kB time=00:00:17.41 bitrate=3493.1kbits/s speed=0.906x    frame=  451 fps= 23 q=28.0 size=    7424kB time=00:00:17.98 bitrate=3382.3kbits/s speed=0.91x    frame=  464 fps= 23 q=28.0 size=    7424kB time=00:00:18.49 bitrate=3288.3kbits/s speed=0.913x    frame=  477 fps= 23 q=28.0 size=    7424kB time=00:00:19.01 bitrate=3199.0kbits/s speed=0.914x    frame=  490 fps= 23 q=30.0 size=    7424kB time=00:00:19.53 bitrate=3114.0kbits/s speed=0.916x    frame=  503 fps= 23 q=29.0 size=    9984kB time=00:00:20.07 bitrate=4075.0kbits/s speed=0.919x    frame=  516 fps= 23 q=29.0 size=    9984kB time=00:00:20.57 bitrate=3975.4kbits/s speed=0.921x    frame=  529 fps= 23 q=28.0 size=    9984kB time=00:00:21.09 bitrate=3877.6kbits/s speed=0.922x    frame=  542 fps= 23 q=30.0 size=    9984kB time=00:00:21.63 bitrate=3781.2kbits/s speed=0.925x    frame=  555 fps= 23 q=31.0 size=    9984kB time=00:00:22.14 bitrate=3694.0kbits/s speed=0.925x    frame=  568 fps= 23 q=28.0 size=    9984kB time=00:00:22.67 bitrate=3607.7kbits/s speed=0.927x    frame=  581 fps= 23 q=28.0 size=    9984kB time=00:00:23.17 bitrate=3529.8kbits/s speed=0.928x    frame=  594 fps= 23 q=29.0 size=    9984kB time=00:00:23.70 bitrate=3451.0kbits/s speed=0.93x    frame=  607 fps= 23 q=28.0 size=    9984kB time=00:00:24.23 bitrate=3375.3kbits/s speed=0.931x    frame=  620 fps= 23 q=29.0 size=    9984kB time=00:00:24.75 bitrate=3304.5kbits/s speed=0.933x    frame=  633 fps= 23 q=29.0 size=   12544kB time=00:00:25.27 bitrate=4066.2kbits/s speed=0.935x    frame=  645 fps= 23 q=31.0 size=   12544kB time=00:00:25.77 bitrate=3987.2kbits/s speed=0.936x    frame=  659 fps= 23 q=28.0 size=   12544kB time=00:00:26.28 bitrate=3910.1kbits/s speed=0.937x    frame=  671 fps= 23 q=28.0 size=   12544kB time=00:00:26.78 bitrate=3837.1kbits/s speed=0.937x    frame=  684 fps= 24 q=29.0 size=   12544kB time=00:00:27.30 bitrate=3764.1kbits/s speed=0.938x    frame=  698 fps= 24 q=29.0 size=   12544kB time=00:00:27.85 bitrate=3689.7kbits/s speed=0.94x    frame=  710 fps= 24 q=29.0 size=   12544kB time=00:00:28.36 bitrate=3623.2kbits/s speed=0.941x    frame=  723 fps= 24 q=30.0 size=   12544kB time=00:00:28.88 bitrate=3558.0kbits/s speed=0.942x    frame=  736 fps= 24 q=29.0 size=   12544kB time=00:00:29.40 bitrate=3494.4kbits/s speed=0.943x    frame=  749 fps= 24 q=31.0 size=   12544kB time=00:00:29.92 bitrate=3434.2kbits/s speed=0.944x    frame=  762 fps= 24 q=28.0 size=   14848kB time=00:00:30.43 bitrate=3997.1kbits/s speed=0.944x    frame=  775 fps= 24 q=29.0 size=   14848kB time=00:00:30.95 bitrate=3929.8kbits/s speed=0.945x    frame=  788 fps= 24 q=27.0 size=   14848kB time=00:00:31.48 bitrate=3863.8kbits/s speed=0.947x    frame=  800 fps= 24 q=29.0 size=   14848kB time=00:00:31.97 bitrate=3804.4kbits/s speed=0.947x    frame=  814 fps= 24 q=31.0 size=   14848kB time=00:00:32.53 bitrate=3738.9kbits/s speed=0.949x    frame=  827 fps= 24 q=31.0 size=   14848kB time=00:00:33.05 bitrate=3680.0kbits/s speed=0.949x    frame=  839 fps= 24 q=29.0 size=   14848kB time=00:00:33.53 bitrate=3627.2kbits/s speed=0.95x    frame=  852 fps= 24 q=28.0 size=   14848kB time=00:00:34.06 bitrate=3571.2kbits/s speed=0.95x    frame=  865 fps= 24 q=28.0 size=   14848kB time=00:00:34.58 bitrate=3517.3kbits/s speed=0.951x    frame=  879 fps= 24 q=28.0 size=   17408kB time=00:00:35.12 bitrate=4060.5kbits/s speed=0.951x    frame=  892 fps= 24 q=28.0 size=   17408kB time=00:00:35.64 bitrate=4001.1kbits/s speed=0.952x    frame=  905 fps= 24 q=29.0 size=   17408kB time=00:00:36.18 bitrate=3941.4kbits/s speed=0.953x    frame=  918 fps= 24 q=31.0 size=   17408kB time=00:00:36.70 bitrate=3885.7kbits/s speed=0.954x    frame=  930 fps= 24 q=30.0 size=   17408kB time=00:00:37.18 bitrate=3835.3kbits/s speed=0.954x    frame=  943 fps= 24 q=28.0 size=   17408kB time=00:00:37.71 bitrate=3781.6kbits/s speed=0.955x    frame=  956 fps= 24 q=28.0 size=   17408kB time=00:00:38.23 bitrate=3729.9kbits/s speed=0.956x    frame=  969 fps= 24 q=29.0 size=   17408kB time=00:00:38.74 bitrate=3681.1kbits/s speed=0.956x    frame=  982 fps= 24 q=27.0 size=   17408kB time=00:00:39.26 bitrate=3632.3kbits/s speed=0.956x    frame=  995 fps= 24 q=28.0 size=   17408kB time=00:00:39.78 bitrate=3584.8kbits/s speed=0.957x    